<svg width="16" height="16" viewBox="0 0 16 16" fill="none" xmlns="http://www.w3.org/2000/svg">
<path d="M12.975 3.71715C12.5168 3.21731 11.6894 3.18651 11.1379 3.73808L5.73788 9.13808C5.59823 9.27773 5.59823 9.45562 5.73788 9.59527C5.87753 9.73492 6.05542 9.73492 6.19507 9.59527L10.6617 5.1286C10.9221 4.86825 11.3442 4.86825 11.6045 5.1286C11.8649 5.38895 11.8649 5.81106 11.6045 6.07141L7.13788 10.5381C6.47753 11.1984 5.45542 11.1984 4.79507 10.5381C4.13472 9.87773 4.13472 8.85562 4.79507 8.19527L10.1951 2.79527C11.2401 1.75025 12.9383 1.71624 13.948 2.80547C14.9829 3.85108 15.0133 5.54105 13.9284 6.54755L7.60454 12.8714C6.14419 14.3318 3.85542 14.3318 2.39507 12.8714C0.934717 11.4111 0.934717 9.12228 2.39507 7.66193L7.79507 2.26193C8.05542 2.00158 8.47753 2.00158 8.73788 2.26193C8.99823 2.52228 8.99823 2.94439 8.73788 3.20474L3.33788 8.60474C2.39823 9.54439 2.39823 10.9889 3.33788 11.9286C4.27753 12.8683 5.72208 12.8683 6.66173 11.9286L12.9951 5.59527C13.0019 5.58844 13.0089 5.58176 13.016 5.57523C13.5158 5.11705 13.5466 4.28964 12.9951 3.73808C12.9882 3.73125 12.9816 3.72427 12.975 3.71715Z" fill="white"/>
</svg>
