<svg width="16" height="16" viewBox="0 0 16 16" fill="none" xmlns="http://www.w3.org/2000/svg">
<path d="M14.6665 7.99992C14.6665 8.25244 14.5238 8.48328 14.298 8.59621L2.29798 14.5962C2.06795 14.7112 1.79227 14.6837 1.58956 14.5254C1.38685 14.3671 1.29325 14.1064 1.34905 13.8553L2.65024 7.99992L1.34905 2.14454C1.29325 1.89349 1.38685 1.63273 1.58956 1.47445C1.79227 1.31618 2.06795 1.28862 2.29798 1.40364L14.298 7.40364C14.5238 7.51657 14.6665 7.74741 14.6665 7.99992ZM3.86795 8.66659L2.95447 12.7773L11.1758 8.66659H3.86795ZM11.1758 7.33326L2.95447 3.2226L3.86795 7.33326H11.1758Z" fill="white"/>
</svg>
